# xmcd
#
# Track frame offsets:
#	150
#	11722
#	23057
#	34792
#	45420
#	58472
#	71680
#	84475
#	95190
#	106452
#	118980
#	130310
#	139697
#	149672
#	161535
#	170515
#	180120
#	192412
#	202005
#	215460
#
# Disc length: 2998 seconds
#
# Revision: 1
# Processed by: cddbd v1.4PL0 Copyright (c) Steve Scherf et al.
# Submitted via: CDmax 1.8
#
DISCID=2e0bb414
DTITLE=Jim Reeves - Sings Great Pop Songs
DYEAR=1997
DGENRE=Country
TTITLE0=Carolina moon
TTITLE1=Moon river
TTITLE2=When I lost you
TTITLE3=It's only a paper moon
TTITLE4=You'll never know
TTITLE5=White cliffs of dover
TTITLE6=Roses are red (my love)
TTITLE7=Memories are made of this
TTITLE8=Just walkin' in the rain
TTITLE9=Blue skies
TTITLE10=My happiness
TTITLE11=I get the blues
TTITLE12=Charmaine
TTITLE13=Mona Lisa
TTITLE14=Marie
TTITLE15=Ramona
TTITLE16=Maria Elena
TTITLE17=Hawaiian wedding song
TTITLE18=Danny boy
TTITLE19=Dear hearts and gentle people
EXTD=
EXTT0=
EXTT1=
EXTT2=
EXTT3=
EXTT4=
EXTT5=
EXTT6=
EXTT7=
EXTT8=
EXTT9=
EXTT10=
EXTT11=
EXTT12=
EXTT13=
EXTT14=
EXTT15=
EXTT16=
EXTT17=
EXTT18=
EXTT19=
PLAYORDER=
